<mxfile host="Electron" modified="2023-05-06T10:57:46.692Z" agent="Mozilla/5.0 (Windows NT 10.0; Win64; x64) AppleWebKit/537.36 (KHTML, like Gecko) draw.io/21.2.1 Chrome/112.0.5615.87 Electron/24.1.2 Safari/537.36" etag="CHvlIiBTfMXu3OJmSh-u" version="21.2.1" type="device">
  <diagram name="Page-1" id="flHcIw07MHjJfFdMiE5C">
    <mxGraphModel dx="2835" dy="2213" grid="1" gridSize="10" guides="1" tooltips="1" connect="1" arrows="1" fold="1" page="1" pageScale="1" pageWidth="1600" pageHeight="1200" math="0" shadow="0">
      <root>
        <mxCell id="0" />
        <mxCell id="1" parent="0" />
        <mxCell id="0KXqUqGdrFxnLFWA2XL2-1" value="&lt;h1&gt;Data Flow&lt;/h1&gt;&lt;p style=&quot;line-height: 10%;&quot;&gt;Bocchi the Chord!&amp;nbsp;&lt;/p&gt;&lt;p style=&quot;line-height: 10%;&quot;&gt;&lt;span style=&quot;background-color: initial;&quot;&gt;Data Flow Diagram&lt;/span&gt;&lt;/p&gt;" style="text;html=1;strokeColor=none;fillColor=none;spacing=5;spacingTop=-20;whiteSpace=wrap;overflow=hidden;rounded=0;" parent="1" vertex="1">
          <mxGeometry x="40" y="30" width="190" height="120" as="geometry" />
        </mxCell>
        <mxCell id="0KXqUqGdrFxnLFWA2XL2-4" value="" style="edgeStyle=orthogonalEdgeStyle;rounded=0;orthogonalLoop=1;jettySize=auto;html=1;" parent="1" source="0KXqUqGdrFxnLFWA2XL2-2" target="0KXqUqGdrFxnLFWA2XL2-3" edge="1">
          <mxGeometry relative="1" as="geometry" />
        </mxCell>
        <mxCell id="0KXqUqGdrFxnLFWA2XL2-2" value="Audio File" style="rounded=1;whiteSpace=wrap;html=1;" parent="1" vertex="1">
          <mxGeometry x="43" y="200" width="120" height="60" as="geometry" />
        </mxCell>
        <mxCell id="0KXqUqGdrFxnLFWA2XL2-6" value="" style="edgeStyle=orthogonalEdgeStyle;rounded=0;orthogonalLoop=1;jettySize=auto;html=1;" parent="1" source="0KXqUqGdrFxnLFWA2XL2-3" target="0KXqUqGdrFxnLFWA2XL2-5" edge="1">
          <mxGeometry relative="1" as="geometry" />
        </mxCell>
        <mxCell id="0KXqUqGdrFxnLFWA2XL2-3" value="librosa.load" style="rounded=1;whiteSpace=wrap;html=1;" parent="1" vertex="1">
          <mxGeometry x="233" y="200" width="120" height="60" as="geometry" />
        </mxCell>
        <mxCell id="0KXqUqGdrFxnLFWA2XL2-9" value="" style="edgeStyle=orthogonalEdgeStyle;rounded=0;orthogonalLoop=1;jettySize=auto;html=1;" parent="1" source="0KXqUqGdrFxnLFWA2XL2-5" target="0KXqUqGdrFxnLFWA2XL2-8" edge="1">
          <mxGeometry relative="1" as="geometry" />
        </mxCell>
        <mxCell id="0KXqUqGdrFxnLFWA2XL2-11" value="" style="edgeStyle=orthogonalEdgeStyle;rounded=0;orthogonalLoop=1;jettySize=auto;html=1;" parent="1" source="0KXqUqGdrFxnLFWA2XL2-5" target="0KXqUqGdrFxnLFWA2XL2-10" edge="1">
          <mxGeometry relative="1" as="geometry" />
        </mxCell>
        <mxCell id="0KXqUqGdrFxnLFWA2XL2-5" value="librosa.hpss" style="rounded=1;whiteSpace=wrap;html=1;" parent="1" vertex="1">
          <mxGeometry x="473" y="200" width="120" height="60" as="geometry" />
        </mxCell>
        <mxCell id="0KXqUqGdrFxnLFWA2XL2-7" value="RAW_Audio_data" style="text;html=1;strokeColor=none;fillColor=none;align=center;verticalAlign=middle;whiteSpace=wrap;rounded=0;" parent="1" vertex="1">
          <mxGeometry x="383" y="200" width="60" height="30" as="geometry" />
        </mxCell>
        <mxCell id="0KXqUqGdrFxnLFWA2XL2-14" value="" style="edgeStyle=orthogonalEdgeStyle;rounded=0;orthogonalLoop=1;jettySize=auto;html=1;" parent="1" source="0KXqUqGdrFxnLFWA2XL2-8" target="0KXqUqGdrFxnLFWA2XL2-13" edge="1">
          <mxGeometry relative="1" as="geometry" />
        </mxCell>
        <mxCell id="0KXqUqGdrFxnLFWA2XL2-8" value="FFT" style="rounded=1;whiteSpace=wrap;html=1;" parent="1" vertex="1">
          <mxGeometry x="723" y="200" width="120" height="60" as="geometry" />
        </mxCell>
        <mxCell id="0KXqUqGdrFxnLFWA2XL2-31" value="" style="edgeStyle=orthogonalEdgeStyle;rounded=0;orthogonalLoop=1;jettySize=auto;html=1;" parent="1" source="0KXqUqGdrFxnLFWA2XL2-10" target="0KXqUqGdrFxnLFWA2XL2-30" edge="1">
          <mxGeometry relative="1" as="geometry" />
        </mxCell>
        <mxCell id="0KXqUqGdrFxnLFWA2XL2-10" value="Beats_Sync" style="rounded=1;whiteSpace=wrap;html=1;" parent="1" vertex="1">
          <mxGeometry x="473" y="330" width="120" height="60" as="geometry" />
        </mxCell>
        <mxCell id="0KXqUqGdrFxnLFWA2XL2-12" value="Percussive_data" style="text;html=1;strokeColor=none;fillColor=none;align=center;verticalAlign=middle;whiteSpace=wrap;rounded=0;" parent="1" vertex="1">
          <mxGeometry x="623" y="200" width="60" height="30" as="geometry" />
        </mxCell>
        <mxCell id="0KXqUqGdrFxnLFWA2XL2-19" value="" style="edgeStyle=orthogonalEdgeStyle;rounded=0;orthogonalLoop=1;jettySize=auto;html=1;" parent="1" source="0KXqUqGdrFxnLFWA2XL2-13" target="0KXqUqGdrFxnLFWA2XL2-18" edge="1">
          <mxGeometry relative="1" as="geometry" />
        </mxCell>
        <mxCell id="0KXqUqGdrFxnLFWA2XL2-13" value="Specturm Energy" style="rounded=1;whiteSpace=wrap;html=1;" parent="1" vertex="1">
          <mxGeometry x="1003" y="200" width="120" height="60" as="geometry" />
        </mxCell>
        <mxCell id="0KXqUqGdrFxnLFWA2XL2-17" value="Percussive_FFT_data" style="text;html=1;strokeColor=none;fillColor=none;align=center;verticalAlign=middle;whiteSpace=wrap;rounded=0;" parent="1" vertex="1">
          <mxGeometry x="883" y="200" width="60" height="30" as="geometry" />
        </mxCell>
        <mxCell id="0KXqUqGdrFxnLFWA2XL2-21" value="" style="edgeStyle=orthogonalEdgeStyle;rounded=0;orthogonalLoop=1;jettySize=auto;html=1;" parent="1" source="0KXqUqGdrFxnLFWA2XL2-18" target="0KXqUqGdrFxnLFWA2XL2-20" edge="1">
          <mxGeometry relative="1" as="geometry" />
        </mxCell>
        <mxCell id="0KXqUqGdrFxnLFWA2XL2-18" value="Tempo" style="rounded=1;whiteSpace=wrap;html=1;" parent="1" vertex="1">
          <mxGeometry x="1273" y="200" width="120" height="60" as="geometry" />
        </mxCell>
        <mxCell id="0KXqUqGdrFxnLFWA2XL2-20" value="Beats Track" style="rounded=1;whiteSpace=wrap;html=1;" parent="1" vertex="1">
          <mxGeometry x="1273" y="330" width="120" height="60" as="geometry" />
        </mxCell>
        <mxCell id="0KXqUqGdrFxnLFWA2XL2-22" value="Specturm_Energy_data" style="text;html=1;strokeColor=none;fillColor=none;align=center;verticalAlign=middle;whiteSpace=wrap;rounded=0;" parent="1" vertex="1">
          <mxGeometry x="1163" y="200" width="60" height="30" as="geometry" />
        </mxCell>
        <mxCell id="0KXqUqGdrFxnLFWA2XL2-24" value="BPM" style="text;html=1;strokeColor=none;fillColor=none;align=center;verticalAlign=middle;whiteSpace=wrap;rounded=0;" parent="1" vertex="1">
          <mxGeometry x="1333" y="280" width="60" height="30" as="geometry" />
        </mxCell>
        <mxCell id="0KXqUqGdrFxnLFWA2XL2-25" value="" style="endArrow=classic;html=1;rounded=0;exitX=0;exitY=0.5;exitDx=0;exitDy=0;" parent="1" source="0KXqUqGdrFxnLFWA2XL2-20" target="0KXqUqGdrFxnLFWA2XL2-10" edge="1">
          <mxGeometry width="50" height="50" relative="1" as="geometry">
            <mxPoint x="863" y="490" as="sourcePoint" />
            <mxPoint x="913" y="440" as="targetPoint" />
          </mxGeometry>
        </mxCell>
        <mxCell id="0KXqUqGdrFxnLFWA2XL2-26" value="Beats_Frames_Index" style="text;html=1;strokeColor=none;fillColor=none;align=center;verticalAlign=middle;whiteSpace=wrap;rounded=0;" parent="1" vertex="1">
          <mxGeometry x="913" y="330" width="60" height="30" as="geometry" />
        </mxCell>
        <mxCell id="0KXqUqGdrFxnLFWA2XL2-28" value="Harmonic_data" style="text;html=1;strokeColor=none;fillColor=none;align=center;verticalAlign=middle;whiteSpace=wrap;rounded=0;" parent="1" vertex="1">
          <mxGeometry x="553" y="280" width="60" height="30" as="geometry" />
        </mxCell>
        <mxCell id="0KXqUqGdrFxnLFWA2XL2-34" value="" style="edgeStyle=orthogonalEdgeStyle;rounded=0;orthogonalLoop=1;jettySize=auto;html=1;" parent="1" source="0KXqUqGdrFxnLFWA2XL2-30" target="0KXqUqGdrFxnLFWA2XL2-33" edge="1">
          <mxGeometry relative="1" as="geometry" />
        </mxCell>
        <mxCell id="0KXqUqGdrFxnLFWA2XL2-54" value="" style="edgeStyle=orthogonalEdgeStyle;rounded=0;orthogonalLoop=1;jettySize=auto;html=1;" parent="1" source="0KXqUqGdrFxnLFWA2XL2-30" target="0KXqUqGdrFxnLFWA2XL2-53" edge="1">
          <mxGeometry relative="1" as="geometry" />
        </mxCell>
        <mxCell id="0KXqUqGdrFxnLFWA2XL2-30" value="FFT" style="rounded=1;whiteSpace=wrap;html=1;" parent="1" vertex="1">
          <mxGeometry x="473" y="450" width="120" height="60" as="geometry" />
        </mxCell>
        <mxCell id="0KXqUqGdrFxnLFWA2XL2-32" value="Beats_Synced_Harmonic_data" style="text;html=1;strokeColor=none;fillColor=none;align=center;verticalAlign=middle;whiteSpace=wrap;rounded=0;" parent="1" vertex="1">
          <mxGeometry x="593" y="410" width="60" height="30" as="geometry" />
        </mxCell>
        <mxCell id="0KXqUqGdrFxnLFWA2XL2-48" value="" style="edgeStyle=orthogonalEdgeStyle;rounded=0;orthogonalLoop=1;jettySize=auto;html=1;" parent="1" source="0KXqUqGdrFxnLFWA2XL2-33" target="0KXqUqGdrFxnLFWA2XL2-47" edge="1">
          <mxGeometry relative="1" as="geometry" />
        </mxCell>
        <mxCell id="0KXqUqGdrFxnLFWA2XL2-33" value="EQ(FFT)" style="rounded=1;whiteSpace=wrap;html=1;" parent="1" vertex="1">
          <mxGeometry x="473" y="610" width="120" height="60" as="geometry" />
        </mxCell>
        <mxCell id="0KXqUqGdrFxnLFWA2XL2-37" value="" style="endArrow=classic;html=1;rounded=0;exitX=0;exitY=0.5;exitDx=0;exitDy=0;entryX=1;entryY=0.5;entryDx=0;entryDy=0;" parent="1" source="0KXqUqGdrFxnLFWA2XL2-10" target="0KXqUqGdrFxnLFWA2XL2-40" edge="1">
          <mxGeometry width="50" height="50" relative="1" as="geometry">
            <mxPoint x="438" y="380" as="sourcePoint" />
            <mxPoint x="328" y="370" as="targetPoint" />
          </mxGeometry>
        </mxCell>
        <mxCell id="0KXqUqGdrFxnLFWA2XL2-38" value="Beats_Synced_Harmonic_data" style="text;html=1;strokeColor=none;fillColor=none;align=center;verticalAlign=middle;whiteSpace=wrap;rounded=0;" parent="1" vertex="1">
          <mxGeometry x="353" y="330" width="60" height="30" as="geometry" />
        </mxCell>
        <mxCell id="0KXqUqGdrFxnLFWA2XL2-43" value="" style="edgeStyle=orthogonalEdgeStyle;rounded=0;orthogonalLoop=1;jettySize=auto;html=1;" parent="1" source="0KXqUqGdrFxnLFWA2XL2-40" target="0KXqUqGdrFxnLFWA2XL2-42" edge="1">
          <mxGeometry relative="1" as="geometry" />
        </mxCell>
        <mxCell id="0KXqUqGdrFxnLFWA2XL2-40" value="librosa.cqt" style="rounded=1;whiteSpace=wrap;html=1;" parent="1" vertex="1">
          <mxGeometry x="168" y="330" width="120" height="60" as="geometry" />
        </mxCell>
        <mxCell id="0KXqUqGdrFxnLFWA2XL2-41" value="Beats_Synced_FFT_data" style="text;html=1;strokeColor=none;fillColor=none;align=center;verticalAlign=middle;whiteSpace=wrap;rounded=0;" parent="1" vertex="1">
          <mxGeometry x="578" y="550" width="60" height="30" as="geometry" />
        </mxCell>
        <mxCell id="0KXqUqGdrFxnLFWA2XL2-46" value="" style="edgeStyle=orthogonalEdgeStyle;rounded=0;orthogonalLoop=1;jettySize=auto;html=1;" parent="1" source="0KXqUqGdrFxnLFWA2XL2-42" target="0KXqUqGdrFxnLFWA2XL2-45" edge="1">
          <mxGeometry relative="1" as="geometry" />
        </mxCell>
        <mxCell id="0KXqUqGdrFxnLFWA2XL2-42" value="EQ(CQT)" style="rounded=1;whiteSpace=wrap;html=1;" parent="1" vertex="1">
          <mxGeometry x="168" y="470" width="120" height="60" as="geometry" />
        </mxCell>
        <mxCell id="0KXqUqGdrFxnLFWA2XL2-44" value="Beats_Synced_CQT_data" style="text;html=1;strokeColor=none;fillColor=none;align=center;verticalAlign=middle;whiteSpace=wrap;rounded=0;" parent="1" vertex="1">
          <mxGeometry x="278" y="410" width="60" height="30" as="geometry" />
        </mxCell>
        <mxCell id="0KXqUqGdrFxnLFWA2XL2-52" style="edgeStyle=orthogonalEdgeStyle;rounded=0;orthogonalLoop=1;jettySize=auto;html=1;entryX=0;entryY=0.5;entryDx=0;entryDy=0;" parent="1" source="0KXqUqGdrFxnLFWA2XL2-45" target="0KXqUqGdrFxnLFWA2XL2-49" edge="1">
          <mxGeometry relative="1" as="geometry">
            <Array as="points">
              <mxPoint x="228" y="920" />
            </Array>
          </mxGeometry>
        </mxCell>
        <mxCell id="0KXqUqGdrFxnLFWA2XL2-45" value="PCP with CQT" style="rounded=1;whiteSpace=wrap;html=1;" parent="1" vertex="1">
          <mxGeometry x="168" y="610" width="120" height="60" as="geometry" />
        </mxCell>
        <mxCell id="0KXqUqGdrFxnLFWA2XL2-50" value="" style="edgeStyle=orthogonalEdgeStyle;rounded=0;orthogonalLoop=1;jettySize=auto;html=1;" parent="1" source="0KXqUqGdrFxnLFWA2XL2-47" target="0KXqUqGdrFxnLFWA2XL2-49" edge="1">
          <mxGeometry relative="1" as="geometry" />
        </mxCell>
        <mxCell id="0KXqUqGdrFxnLFWA2XL2-47" value="PCP with FFT" style="rounded=1;whiteSpace=wrap;html=1;" parent="1" vertex="1">
          <mxGeometry x="473" y="750" width="120" height="60" as="geometry" />
        </mxCell>
        <mxCell id="0KXqUqGdrFxnLFWA2XL2-70" style="edgeStyle=orthogonalEdgeStyle;rounded=0;orthogonalLoop=1;jettySize=auto;html=1;" parent="1" source="0KXqUqGdrFxnLFWA2XL2-49" target="0KXqUqGdrFxnLFWA2XL2-69" edge="1">
          <mxGeometry relative="1" as="geometry" />
        </mxCell>
        <mxCell id="0KXqUqGdrFxnLFWA2XL2-49" value="CTT" style="rounded=1;whiteSpace=wrap;html=1;" parent="1" vertex="1">
          <mxGeometry x="473" y="890" width="120" height="60" as="geometry" />
        </mxCell>
        <mxCell id="0KXqUqGdrFxnLFWA2XL2-55" style="edgeStyle=orthogonalEdgeStyle;rounded=0;orthogonalLoop=1;jettySize=auto;html=1;entryX=1;entryY=0.5;entryDx=0;entryDy=0;" parent="1" source="0KXqUqGdrFxnLFWA2XL2-53" target="0KXqUqGdrFxnLFWA2XL2-49" edge="1">
          <mxGeometry relative="1" as="geometry">
            <mxPoint x="768" y="950" as="targetPoint" />
            <Array as="points">
              <mxPoint x="768" y="920" />
            </Array>
          </mxGeometry>
        </mxCell>
        <mxCell id="0KXqUqGdrFxnLFWA2XL2-53" value="PCP with DCE" style="rounded=1;whiteSpace=wrap;html=1;" parent="1" vertex="1">
          <mxGeometry x="708" y="650" width="120" height="60" as="geometry" />
        </mxCell>
        <mxCell id="0KXqUqGdrFxnLFWA2XL2-60" style="edgeStyle=orthogonalEdgeStyle;rounded=0;orthogonalLoop=1;jettySize=auto;html=1;" parent="1" source="0KXqUqGdrFxnLFWA2XL2-56" target="0KXqUqGdrFxnLFWA2XL2-59" edge="1">
          <mxGeometry relative="1" as="geometry" />
        </mxCell>
        <mxCell id="0KXqUqGdrFxnLFWA2XL2-56" value="Alicias Keys Samples" style="rounded=1;whiteSpace=wrap;html=1;" parent="1" vertex="1">
          <mxGeometry x="1438" y="420" width="120" height="60" as="geometry" />
        </mxCell>
        <mxCell id="0KXqUqGdrFxnLFWA2XL2-63" value="" style="swimlane;startSize=0;" parent="1" vertex="1">
          <mxGeometry x="958" y="540" width="450" height="160" as="geometry">
            <mxRectangle x="1055" y="540" width="50" height="40" as="alternateBounds" />
          </mxGeometry>
        </mxCell>
        <mxCell id="0XwQ0cWngyI9H_PLWxxz-5" style="edgeStyle=orthogonalEdgeStyle;rounded=0;orthogonalLoop=1;jettySize=auto;html=1;" edge="1" parent="0KXqUqGdrFxnLFWA2XL2-63" source="0KXqUqGdrFxnLFWA2XL2-61" target="0KXqUqGdrFxnLFWA2XL2-66">
          <mxGeometry relative="1" as="geometry" />
        </mxCell>
        <mxCell id="0KXqUqGdrFxnLFWA2XL2-61" value="KNN Datasets Generator" style="rounded=1;whiteSpace=wrap;html=1;" parent="0KXqUqGdrFxnLFWA2XL2-63" vertex="1">
          <mxGeometry x="300" y="50" width="120" height="60" as="geometry" />
        </mxCell>
        <mxCell id="0KXqUqGdrFxnLFWA2XL2-66" value="CTT with KNN" style="rounded=1;whiteSpace=wrap;html=1;" parent="0KXqUqGdrFxnLFWA2XL2-63" vertex="1">
          <mxGeometry x="85" y="50" width="120" height="60" as="geometry" />
        </mxCell>
        <mxCell id="0XwQ0cWngyI9H_PLWxxz-23" value="KNN Module" style="text;html=1;strokeColor=none;fillColor=none;align=center;verticalAlign=middle;whiteSpace=wrap;rounded=0;" vertex="1" parent="0KXqUqGdrFxnLFWA2XL2-63">
          <mxGeometry x="20" y="10" width="80" height="30" as="geometry" />
        </mxCell>
        <mxCell id="0XwQ0cWngyI9H_PLWxxz-34" value="KNN_Datasets" style="text;html=1;strokeColor=none;fillColor=none;align=center;verticalAlign=middle;whiteSpace=wrap;rounded=0;" vertex="1" parent="0KXqUqGdrFxnLFWA2XL2-63">
          <mxGeometry x="222" y="50" width="60" height="30" as="geometry" />
        </mxCell>
        <mxCell id="0XwQ0cWngyI9H_PLWxxz-41" style="edgeStyle=orthogonalEdgeStyle;rounded=0;orthogonalLoop=1;jettySize=auto;html=1;" edge="1" parent="1" source="0KXqUqGdrFxnLFWA2XL2-69" target="0XwQ0cWngyI9H_PLWxxz-40">
          <mxGeometry relative="1" as="geometry" />
        </mxCell>
        <mxCell id="0KXqUqGdrFxnLFWA2XL2-69" value="Display" style="rounded=1;whiteSpace=wrap;html=1;" parent="1" vertex="1">
          <mxGeometry x="473" y="1030" width="120" height="60" as="geometry" />
        </mxCell>
        <mxCell id="0XwQ0cWngyI9H_PLWxxz-31" style="edgeStyle=orthogonalEdgeStyle;rounded=0;orthogonalLoop=1;jettySize=auto;html=1;" edge="1" parent="1" source="0KXqUqGdrFxnLFWA2XL2-59" target="0KXqUqGdrFxnLFWA2XL2-78">
          <mxGeometry relative="1" as="geometry" />
        </mxCell>
        <mxCell id="0XwQ0cWngyI9H_PLWxxz-32" style="edgeStyle=orthogonalEdgeStyle;rounded=0;orthogonalLoop=1;jettySize=auto;html=1;entryX=0.5;entryY=0;entryDx=0;entryDy=0;" edge="1" parent="1" source="0KXqUqGdrFxnLFWA2XL2-59" target="0KXqUqGdrFxnLFWA2XL2-61">
          <mxGeometry relative="1" as="geometry">
            <Array as="points">
              <mxPoint x="1248" y="510" />
              <mxPoint x="1318" y="510" />
            </Array>
          </mxGeometry>
        </mxCell>
        <mxCell id="0KXqUqGdrFxnLFWA2XL2-59" value="Random Chord Audio Generator" style="rounded=1;whiteSpace=wrap;html=1;" parent="1" vertex="1">
          <mxGeometry x="1188" y="420" width="120" height="60" as="geometry" />
        </mxCell>
        <mxCell id="0KXqUqGdrFxnLFWA2XL2-80" style="edgeStyle=orthogonalEdgeStyle;rounded=0;orthogonalLoop=1;jettySize=auto;html=1;entryX=1;entryY=0.5;entryDx=0;entryDy=0;exitX=0.5;exitY=1;exitDx=0;exitDy=0;" parent="1" source="0KXqUqGdrFxnLFWA2XL2-78" target="0KXqUqGdrFxnLFWA2XL2-53" edge="1">
          <mxGeometry relative="1" as="geometry">
            <Array as="points">
              <mxPoint x="860" y="480" />
              <mxPoint x="860" y="680" />
            </Array>
          </mxGeometry>
        </mxCell>
        <mxCell id="0KXqUqGdrFxnLFWA2XL2-78" value="DNN Modle Generator" style="rounded=1;whiteSpace=wrap;html=1;" parent="1" vertex="1">
          <mxGeometry x="808" y="420" width="120" height="60" as="geometry" />
        </mxCell>
        <mxCell id="0XwQ0cWngyI9H_PLWxxz-6" style="edgeStyle=orthogonalEdgeStyle;rounded=0;orthogonalLoop=1;jettySize=auto;html=1;entryX=1;entryY=0.5;entryDx=0;entryDy=0;" edge="1" parent="1" source="0KXqUqGdrFxnLFWA2XL2-66" target="0KXqUqGdrFxnLFWA2XL2-69">
          <mxGeometry relative="1" as="geometry">
            <Array as="points">
              <mxPoint x="988" y="620" />
              <mxPoint x="988" y="1060" />
            </Array>
          </mxGeometry>
        </mxCell>
        <mxCell id="0XwQ0cWngyI9H_PLWxxz-10" style="edgeStyle=orthogonalEdgeStyle;rounded=0;orthogonalLoop=1;jettySize=auto;html=1;exitX=0.5;exitY=0;exitDx=0;exitDy=0;" edge="1" parent="1" source="0XwQ0cWngyI9H_PLWxxz-8" target="0KXqUqGdrFxnLFWA2XL2-61">
          <mxGeometry relative="1" as="geometry">
            <Array as="points">
              <mxPoint x="1318" y="740" />
              <mxPoint x="1318" y="740" />
            </Array>
          </mxGeometry>
        </mxCell>
        <mxCell id="0XwQ0cWngyI9H_PLWxxz-12" value="" style="swimlane;startSize=0;" vertex="1" parent="1">
          <mxGeometry x="1218" y="770" width="200" height="360" as="geometry">
            <mxRectangle x="1300" y="740" width="50" height="40" as="alternateBounds" />
          </mxGeometry>
        </mxCell>
        <mxCell id="0KXqUqGdrFxnLFWA2XL2-57" value="OSC" style="rounded=1;whiteSpace=wrap;html=1;" parent="0XwQ0cWngyI9H_PLWxxz-12" vertex="1">
          <mxGeometry x="40" y="280" width="120" height="60" as="geometry" />
        </mxCell>
        <mxCell id="0KXqUqGdrFxnLFWA2XL2-58" value="Synth" style="rounded=1;whiteSpace=wrap;html=1;" parent="0XwQ0cWngyI9H_PLWxxz-12" vertex="1">
          <mxGeometry x="40" y="170" width="120" height="60" as="geometry" />
        </mxCell>
        <mxCell id="0KXqUqGdrFxnLFWA2XL2-75" style="edgeStyle=orthogonalEdgeStyle;rounded=0;orthogonalLoop=1;jettySize=auto;html=1;" parent="0XwQ0cWngyI9H_PLWxxz-12" source="0KXqUqGdrFxnLFWA2XL2-57" target="0KXqUqGdrFxnLFWA2XL2-58" edge="1">
          <mxGeometry relative="1" as="geometry" />
        </mxCell>
        <mxCell id="0XwQ0cWngyI9H_PLWxxz-8" value="Random Chord Audio Generator" style="rounded=1;whiteSpace=wrap;html=1;" vertex="1" parent="0XwQ0cWngyI9H_PLWxxz-12">
          <mxGeometry x="40" y="60" width="120" height="60" as="geometry" />
        </mxCell>
        <mxCell id="0XwQ0cWngyI9H_PLWxxz-9" style="edgeStyle=orthogonalEdgeStyle;rounded=0;orthogonalLoop=1;jettySize=auto;html=1;" edge="1" parent="0XwQ0cWngyI9H_PLWxxz-12" source="0KXqUqGdrFxnLFWA2XL2-58" target="0XwQ0cWngyI9H_PLWxxz-8">
          <mxGeometry relative="1" as="geometry" />
        </mxCell>
        <mxCell id="0XwQ0cWngyI9H_PLWxxz-24" value="Synth Chord Generate Moudle" style="text;html=1;strokeColor=none;fillColor=none;align=center;verticalAlign=middle;whiteSpace=wrap;rounded=0;" vertex="1" parent="0XwQ0cWngyI9H_PLWxxz-12">
          <mxGeometry x="10" y="10" width="80" height="30" as="geometry" />
        </mxCell>
        <mxCell id="0XwQ0cWngyI9H_PLWxxz-25" value="OSC_Signal_List" style="text;html=1;strokeColor=none;fillColor=none;align=center;verticalAlign=middle;whiteSpace=wrap;rounded=0;" vertex="1" parent="0XwQ0cWngyI9H_PLWxxz-12">
          <mxGeometry x="120" y="240" width="60" height="30" as="geometry" />
        </mxCell>
        <mxCell id="0XwQ0cWngyI9H_PLWxxz-26" value="Synth_Signal (Notes)" style="text;html=1;strokeColor=none;fillColor=none;align=center;verticalAlign=middle;whiteSpace=wrap;rounded=0;" vertex="1" parent="0XwQ0cWngyI9H_PLWxxz-12">
          <mxGeometry x="110" y="130" width="60" height="30" as="geometry" />
        </mxCell>
        <mxCell id="0XwQ0cWngyI9H_PLWxxz-13" value="Equlized_FFT_data" style="text;html=1;strokeColor=none;fillColor=none;align=center;verticalAlign=middle;whiteSpace=wrap;rounded=0;" vertex="1" parent="1">
          <mxGeometry x="563" y="690" width="60" height="30" as="geometry" />
        </mxCell>
        <mxCell id="0XwQ0cWngyI9H_PLWxxz-14" value="PCP_Vector" style="text;html=1;strokeColor=none;fillColor=none;align=center;verticalAlign=middle;whiteSpace=wrap;rounded=0;" vertex="1" parent="1">
          <mxGeometry x="248" y="785" width="60" height="30" as="geometry" />
        </mxCell>
        <mxCell id="0XwQ0cWngyI9H_PLWxxz-15" value="PCP_Vector" style="text;html=1;strokeColor=none;fillColor=none;align=center;verticalAlign=middle;whiteSpace=wrap;rounded=0;" vertex="1" parent="1">
          <mxGeometry x="548" y="830" width="60" height="30" as="geometry" />
        </mxCell>
        <mxCell id="0XwQ0cWngyI9H_PLWxxz-16" value="PCP_Vector" style="text;html=1;strokeColor=none;fillColor=none;align=center;verticalAlign=middle;whiteSpace=wrap;rounded=0;" vertex="1" parent="1">
          <mxGeometry x="778" y="785" width="60" height="30" as="geometry" />
        </mxCell>
        <mxCell id="0XwQ0cWngyI9H_PLWxxz-17" value="Beats_Synced_FFT_data" style="text;html=1;strokeColor=none;fillColor=none;align=center;verticalAlign=middle;whiteSpace=wrap;rounded=0;" vertex="1" parent="1">
          <mxGeometry x="653" y="450" width="60" height="30" as="geometry" />
        </mxCell>
        <mxCell id="0XwQ0cWngyI9H_PLWxxz-19" value="Equlized_CQT_data" style="text;html=1;strokeColor=none;fillColor=none;align=center;verticalAlign=middle;whiteSpace=wrap;rounded=0;" vertex="1" parent="1">
          <mxGeometry x="268" y="560" width="60" height="30" as="geometry" />
        </mxCell>
        <mxCell id="0XwQ0cWngyI9H_PLWxxz-20" value="Chord_Frames" style="text;html=1;strokeColor=none;fillColor=none;align=center;verticalAlign=middle;whiteSpace=wrap;rounded=0;" vertex="1" parent="1">
          <mxGeometry x="548" y="970" width="60" height="30" as="geometry" />
        </mxCell>
        <mxCell id="0XwQ0cWngyI9H_PLWxxz-21" value="Chord_Frames" style="text;html=1;strokeColor=none;fillColor=none;align=center;verticalAlign=middle;whiteSpace=wrap;rounded=0;" vertex="1" parent="1">
          <mxGeometry x="748" y="1030" width="60" height="30" as="geometry" />
        </mxCell>
        <mxCell id="0XwQ0cWngyI9H_PLWxxz-28" value="Random_Chord_Audio_Signal" style="text;html=1;strokeColor=none;fillColor=none;align=center;verticalAlign=middle;whiteSpace=wrap;rounded=0;" vertex="1" parent="1">
          <mxGeometry x="1318" y="720" width="170" height="30" as="geometry" />
        </mxCell>
        <mxCell id="0XwQ0cWngyI9H_PLWxxz-29" value="Sample_Data" style="text;html=1;strokeColor=none;fillColor=none;align=center;verticalAlign=middle;whiteSpace=wrap;rounded=0;" vertex="1" parent="1">
          <mxGeometry x="1348" y="420" width="60" height="30" as="geometry" />
        </mxCell>
        <mxCell id="0XwQ0cWngyI9H_PLWxxz-30" value="Random_Chord_Audio_Signal" style="text;html=1;strokeColor=none;fillColor=none;align=center;verticalAlign=middle;whiteSpace=wrap;rounded=0;" vertex="1" parent="1">
          <mxGeometry x="973" y="420" width="175" height="30" as="geometry" />
        </mxCell>
        <mxCell id="0XwQ0cWngyI9H_PLWxxz-33" value="Random_Chord_Audio_Signal" style="text;html=1;strokeColor=none;fillColor=none;align=center;verticalAlign=middle;whiteSpace=wrap;rounded=0;" vertex="1" parent="1">
          <mxGeometry x="1328" y="510" width="170" height="30" as="geometry" />
        </mxCell>
        <mxCell id="0XwQ0cWngyI9H_PLWxxz-35" style="edgeStyle=orthogonalEdgeStyle;rounded=0;orthogonalLoop=1;jettySize=auto;html=1;entryX=0.75;entryY=1;entryDx=0;entryDy=0;" edge="1" parent="1" source="0XwQ0cWngyI9H_PLWxxz-8" target="0KXqUqGdrFxnLFWA2XL2-78">
          <mxGeometry relative="1" as="geometry" />
        </mxCell>
        <mxCell id="0XwQ0cWngyI9H_PLWxxz-36" value="Random_Chord_Audio_Signal" style="text;html=1;strokeColor=none;fillColor=none;align=center;verticalAlign=middle;whiteSpace=wrap;rounded=0;" vertex="1" parent="1">
          <mxGeometry x="1003" y="830" width="170" height="30" as="geometry" />
        </mxCell>
        <mxCell id="0XwQ0cWngyI9H_PLWxxz-39" style="edgeStyle=orthogonalEdgeStyle;rounded=0;orthogonalLoop=1;jettySize=auto;html=1;" edge="1" parent="1" source="0XwQ0cWngyI9H_PLWxxz-38" target="0KXqUqGdrFxnLFWA2XL2-2">
          <mxGeometry relative="1" as="geometry" />
        </mxCell>
        <mxCell id="0XwQ0cWngyI9H_PLWxxz-38" value="Start" style="ellipse;whiteSpace=wrap;html=1;aspect=fixed;" vertex="1" parent="1">
          <mxGeometry x="63" y="320" width="80" height="80" as="geometry" />
        </mxCell>
        <mxCell id="0XwQ0cWngyI9H_PLWxxz-40" value="End" style="ellipse;whiteSpace=wrap;html=1;aspect=fixed;" vertex="1" parent="1">
          <mxGeometry x="300" y="1020" width="80" height="80" as="geometry" />
        </mxCell>
      </root>
    </mxGraphModel>
  </diagram>
</mxfile>
